<svg xmlns="http://www.w3.org/2000/svg" 
viewBox="0 0 42 51">
    <defs>
        <style>
        .cls-1
        {
        fill:#FF5B00;
        }
        </style>
    </defs>
    <title>upvote</title>
    <g id="Layer_2" data-name="Layer 2">
        <g id="Layer_1-2" data-name="Layer 1">
            <path class="cls-1" d="M37.33,21h-4A49,49,0,0,1,31,5.23a5,5,0,0,0-10-
            .47A56.62,56.62,0,0,0,21.66,15H10a6,6,0,0,0-6,6,5.9,5.9,0,0,0,.88,3.11A6,6,
            0,0,0,3.26,35.33a6,6,0,0,0,1.8,8.89A5.12,5.12,0,0,0,5,45a6,6,0,0,0,6,6H28a6,
            6,0,0,0,5.19-3h4.14A4.67,4.67,0,0,0,42,43.33V25.67A4.67,4.67,0,0,0,37.33,
            21Z"/>
        </g>
    </g>
</svg>